<svg xmlns="http://www.w3.org/2000/svg" width="16" height="16">
  <style type="text/css">.icon-canvas-transparent{opacity:0;fill:#F6F6F6;} .icon-vs-out{opacity:0;fill:#F6F6F6;} .icon-vs-fg{stroke:#1f6f1f;fill:transparent} </style>
  <rect class="icon-vs-fg" height="3" transform="matrix(1,0,0,1,0,0)" width="12.2" x="2.1" y="1.1" />
  <polyline class="icon-vs-fg" points="3.3,2.6 9.6,2.6" />
  <ellipse class="icon-vs-fg" cx="12.4" cy="2.6" rx="0.1" ry="0.1" />
  <rect class="icon-vs-fg" height="3" transform="matrix(1,0,0,1,0,0)" width="12.2" x="2.1" y="6.1" />
  <polyline class="icon-vs-fg" points="3.3,7.6 9.6,7.6" />
  <ellipse class="icon-vs-fg" cx="12.4" cy="7.6" rx="0.1" ry="0.1" />
  <rect class="icon-vs-fg" height="3" transform="matrix(1,0,0,1,0,0)" width="12.2" x="2.1" y="11.1" />
  <polyline class="icon-vs-fg" points="3.3,12.6 9.6,12.6" />
  <ellipse class="icon-vs-fg" cx="12.4" cy="12.6" rx="0.1" ry="0.1" />
  <!--ellipse class="icon-vs-fg" cx="10.6" cy="10.6" rx="5" ry="5" / -->
  <!--polyline class="icon-vs-fg" points="9,7 9,14 12,14" / -->
</svg>